HIERARCHY
ROOT Hips
{
	OFFSET 0.000000 83.214638 0.000000
	CHANNELS 6 Xposition Yposition Zposition Xrotation Yrotation Zrotation
	JOINT Pelvis
	{
		OFFSET 0.000000 0.000000 0.000000
		CHANNELS 3 Xrotation Yrotation Zrotation
		JOINT LeftUpLeg
		{
			OFFSET 8.479700 -4.795502 -0.379100
			CHANNELS 3 Xrotation Yrotation Zrotation
			JOINT LeftLeg
			{
				OFFSET 0.024144 -32.555107 0.112900
				CHANNELS 3 Xrotation Yrotation Zrotation
				JOINT LeftFoot
				{
					OFFSET -0.024144 -32.638630 -3.012600
					CHANNELS 3 Xrotation Yrotation Zrotation
					JOINT LeftToeBase
					{
						OFFSET 0.970200 -13.225400 11.864200
						CHANNELS 3 Xrotation Yrotation Zrotation
						End Site
						{
							OFFSET 0.000000 12.319262 0.000000
						}
					}
					JOINT LFootTongue
					{
						OFFSET 1.142400 -1.059800 6.665200
						CHANNELS 3 Xrotation Yrotation Zrotation
						End Site
						{
							OFFSET 0.000000 12.319262 0.000000
						}
					}
				}
				JOINT LeftPantLeg
				{
					OFFSET 0.918482 -16.533964 -2.284700
					CHANNELS 3 Xrotation Yrotation Zrotation
					End Site
					{
						OFFSET 0.350399 24.744368 0.000000
					}
				}
			}
		}
		JOINT RightUpLeg
		{
			OFFSET -8.479700 -4.795502 -0.379100
			CHANNELS 3 Xrotation Yrotation Zrotation
			JOINT RightLeg
			{
				OFFSET -0.023144 -32.555092 0.112900
				CHANNELS 3 Xrotation Yrotation Zrotation
				JOINT RightFoot
				{
					OFFSET 0.023144 -32.638641 -3.012700
					CHANNELS 3 Xrotation Yrotation Zrotation
					JOINT RightToeBase
					{
						OFFSET -0.970200 -13.225400 11.864200
						CHANNELS 3 Xrotation Yrotation Zrotation
						End Site
						{
							OFFSET 0.000000 12.319244 0.000000
						}
					}
					JOINT RFootTongue
					{
						OFFSET -1.142200 -1.059800 6.665200
						CHANNELS 3 Xrotation Yrotation Zrotation
						End Site
						{
							OFFSET 0.000000 12.319243 0.000000
						}
					}
				}
				JOINT RightPantLeg
				{
					OFFSET -0.919482 -16.533978 -2.284800
					CHANNELS 3 Xrotation Yrotation Zrotation
					End Site
					{
						OFFSET -0.350400 24.744419 0.000000
					}
				}
			}
		}
	}
	JOINT Spine
	{
		OFFSET 0.000000 7.722000 1.166200
		CHANNELS 3 Xrotation Yrotation Zrotation
		JOINT Spine1
		{
			OFFSET 0.000000 12.024101 0.248800
			CHANNELS 3 Xrotation Yrotation Zrotation
			JOINT Spine2
			{
				OFFSET 0.000000 11.502998 -0.491200
				CHANNELS 3 Xrotation Yrotation Zrotation
				JOINT Neck
				{
					OFFSET 0.000000 18.430702 -3.123100
					CHANNELS 3 Xrotation Yrotation Zrotation
					JOINT Head
					{
						OFFSET 0.000000 9.051102 1.034000
						CHANNELS 3 Xrotation Yrotation Zrotation
						JOINT HairB
						{
							OFFSET 0.208400 24.786102 24.822300
							CHANNELS 3 Xrotation Yrotation Zrotation
							End Site
							{
								OFFSET 0.000000 32.263779 0.000000
							}
						}
						JOINT HairA
						{
							OFFSET -7.081100 24.428299 23.196600
							CHANNELS 3 Xrotation Yrotation Zrotation
							End Site
							{
								OFFSET 0.000000 32.263779 0.000000
							}
						}
						JOINT Hat
						{
							OFFSET 16.728800 15.048294 -15.439601
							CHANNELS 3 Xrotation Yrotation Zrotation
							End Site
							{
								OFFSET 0.000000 32.263779 0.000000
							}
						}
					}
				}
				JOINT LeftShoulder
				{
					OFFSET 6.197800 13.665199 -4.064700
					CHANNELS 3 Xrotation Yrotation Zrotation
					JOINT LeftArm
					{
						OFFSET 7.778100 -0.187103 -1.709300
						CHANNELS 3 Xrotation Yrotation Zrotation
						JOINT LeftForeArm
						{
							OFFSET 22.049376 0.000000 0.000000
							CHANNELS 3 Xrotation Yrotation Zrotation
							JOINT LeftHand
							{
								OFFSET 23.009392 0.000000 0.000000
								CHANNELS 3 Xrotation Yrotation Zrotation
								JOINT LeftHandThumb1
								{
									OFFSET 3.507191 -2.063065 3.133727
									CHANNELS 3 Xrotation Yrotation Zrotation
									JOINT LeftHandThumb2
									{
										OFFSET 3.101337 -1.790558 1.790558
										CHANNELS 3 Xrotation Yrotation Zrotation
										JOINT LeftHandThumb3
										{
											OFFSET 3.058640 -1.765907 1.765906
											CHANNELS 3 Xrotation Yrotation Zrotation
											End Site
											{
												OFFSET -0.415260 3.926476 -0.049563
											}
										}
									}
								}
								JOINT LeftHandIndex1
								{
									OFFSET 11.334419 -0.901459 3.706815
									CHANNELS 3 Xrotation Yrotation Zrotation
									JOINT LeftHandIndex2
									{
										OFFSET 3.283112 0.000000 0.000000
										CHANNELS 3 Xrotation Yrotation Zrotation
										JOINT LeftHandIndex3
										{
											OFFSET 3.323853 0.000000 0.000000
											CHANNELS 3 Xrotation Yrotation Zrotation
											End Site
											{
												OFFSET -1.135597 3.097809 0.402452
											}
										}
									}
								}
								JOINT LeftHandMiddle1
								{
									OFFSET 11.335861 0.000000 0.000000
									CHANNELS 3 Xrotation Yrotation Zrotation
									JOINT LeftHandMiddle2
									{
										OFFSET 3.410492 0.000000 0.000000
										CHANNELS 3 Xrotation Yrotation Zrotation
										JOINT LeftHandMiddle3
										{
											OFFSET 3.312172 0.000000 0.000000
											CHANNELS 3 Xrotation Yrotation Zrotation
											End Site
											{
												OFFSET -1.150200 3.080154 0.400270
											}
										}
									}
								}
								JOINT LeftHandRing1
								{
									OFFSET 11.514786 -0.013176 -3.003090
									CHANNELS 3 Xrotation Yrotation Zrotation
									JOINT LeftHandRing2
									{
										OFFSET 3.053307 0.000000 0.000000
										CHANNELS 3 Xrotation Yrotation Zrotation
										JOINT LeftHandRing3
										{
											OFFSET 3.295807 0.000000 0.000000
											CHANNELS 3 Xrotation Yrotation Zrotation
											End Site
											{
												OFFSET -1.281006 3.013344 0.375733
											}
										}
									}
								}
								JOINT LeftHandPinky1
								{
									OFFSET 10.518692 -0.960396 -5.730441
									CHANNELS 3 Xrotation Yrotation Zrotation
									JOINT LeftHandPinky2
									{
										OFFSET 2.861649 0.000000 0.000000
										CHANNELS 3 Xrotation Yrotation Zrotation
										JOINT LeftHandPinky3
										{
											OFFSET 2.863380 0.000000 0.000000
											CHANNELS 3 Xrotation Yrotation Zrotation
											End Site
											{
												OFFSET -0.843597 2.711159 0.369971
											}
										}
									}
								}
							}
							JOINT LSleeve
							{
								OFFSET 6.676277 -0.344902 -1.011730
								CHANNELS 3 Xrotation Yrotation Zrotation
								End Site
								{
									OFFSET 0.000000 14.885353 0.000000
								}
							}
						}
					}
				}
				JOINT RightShoulder
				{
					OFFSET -6.197800 13.665199 -4.064700
					CHANNELS 3 Xrotation Yrotation Zrotation
					JOINT RightArm
					{
						OFFSET -7.778100 -0.187103 -1.709300
						CHANNELS 3 Xrotation Yrotation Zrotation
						JOINT RightForeArm
						{
							OFFSET -22.049376 0.000000 0.000000
							CHANNELS 3 Xrotation Yrotation Zrotation
							JOINT RightHand
							{
								OFFSET -23.009392 0.000000 0.000000
								CHANNELS 3 Xrotation Yrotation Zrotation
								JOINT RightHandThumb1
								{
									OFFSET -3.507191 -2.063065 3.133727
									CHANNELS 3 Xrotation Yrotation Zrotation
									JOINT RightHandThumb2
									{
										OFFSET -3.101337 -1.790558 1.790558
										CHANNELS 3 Xrotation Yrotation Zrotation
										JOINT RightHandThumb3
										{
											OFFSET -3.058640 -1.765907 1.765906
											CHANNELS 3 Xrotation Yrotation Zrotation
											End Site
											{
												OFFSET 0.415260 3.926476 -0.049563
											}
										}
									}
								}
								JOINT RightHandIndex1
								{
									OFFSET -11.334419 -0.901459 3.706815
									CHANNELS 3 Xrotation Yrotation Zrotation
									JOINT RightHandIndex2
									{
										OFFSET -3.283112 0.000000 0.000000
										CHANNELS 3 Xrotation Yrotation Zrotation
										JOINT RightHandIndex3
										{
											OFFSET -3.323853 0.000000 0.000000
											CHANNELS 3 Xrotation Yrotation Zrotation
											End Site
											{
												OFFSET 1.135597 3.097809 0.402452
											}
										}
									}
								}
								JOINT RightHandMiddle1
								{
									OFFSET -11.335861 0.000000 0.000000
									CHANNELS 3 Xrotation Yrotation Zrotation
									JOINT RightHandMiddle2
									{
										OFFSET -3.410492 0.000000 0.000000
										CHANNELS 3 Xrotation Yrotation Zrotation
										JOINT RightHandMiddle3
										{
											OFFSET -3.312172 0.000000 0.000000
											CHANNELS 3 Xrotation Yrotation Zrotation
											End Site
											{
												OFFSET 1.150200 3.080154 0.400270
											}
										}
									}
								}
								JOINT RightHandRing1
								{
									OFFSET -11.514786 -0.013176 -3.003090
									CHANNELS 3 Xrotation Yrotation Zrotation
									JOINT RightHandRing2
									{
										OFFSET -3.053307 0.000000 0.000000
										CHANNELS 3 Xrotation Yrotation Zrotation
										JOINT RightHandRing3
										{
											OFFSET -3.295807 0.000000 0.000000
											CHANNELS 3 Xrotation Yrotation Zrotation
											End Site
											{
												OFFSET 1.281006 3.013344 0.375733
											}
										}
									}
								}
								JOINT RightHandPinky1
								{
									OFFSET -10.518692 -0.960396 -5.730441
									CHANNELS 3 Xrotation Yrotation Zrotation
									JOINT RightHandPinky2
									{
										OFFSET -2.861649 0.000000 0.000000
										CHANNELS 3 Xrotation Yrotation Zrotation
										JOINT RightHandPinky3
										{
											OFFSET -2.863380 0.000000 0.000000
											CHANNELS 3 Xrotation Yrotation Zrotation
											End Site
											{
												OFFSET 0.843597 2.711159 0.369971
											}
										}
									}
								}
							}
							JOINT RSleeve
							{
								OFFSET -6.676277 -0.344902 -1.011730
								CHANNELS 3 Xrotation Yrotation Zrotation
								End Site
								{
									OFFSET 0.000000 14.885353 0.000000
								}
							}
						}
					}
				}
				JOINT Backpack
				{
					OFFSET 0.000000 -2.471497 36.677502
					CHANNELS 3 Xrotation Yrotation Zrotation
					End Site
					{
						OFFSET 0.000000 20.427315 0.000000
					}
				}
				JOINT Hood
				{
					OFFSET 0.000000 18.754097 -10.431000
					CHANNELS 3 Xrotation Yrotation Zrotation
					JOINT Hood1
					{
						OFFSET 0.000000 -5.011002 -7.685901
						CHANNELS 3 Xrotation Yrotation Zrotation
						End Site
						{
							OFFSET 0.000000 9.175140 0.000000
						}
					}
				}
				JOINT LHoodieString
				{
					OFFSET 5.250500 16.397697 3.089900
					CHANNELS 3 Xrotation Yrotation Zrotation
					JOINT LHoodieString1
					{
						OFFSET 0.257700 -6.364304 3.694600
						CHANNELS 3 Xrotation Yrotation Zrotation
						JOINT LHoodieString2
						{
							OFFSET 0.000000 -9.643799 2.679100
							CHANNELS 3 Xrotation Yrotation Zrotation
							End Site
							{
								OFFSET 0.000000 10.009018 0.000000
							}
						}
					}
				}
				JOINT RHoodieString
				{
					OFFSET -5.250500 16.397697 3.089900
					CHANNELS 3 Xrotation Yrotation Zrotation
					JOINT RHoodieString1
					{
						OFFSET -0.257700 -6.364304 3.694600
						CHANNELS 3 Xrotation Yrotation Zrotation
						JOINT RHoodieString2
						{
							OFFSET 0.000000 -9.643799 2.679100
							CHANNELS 3 Xrotation Yrotation Zrotation
							End Site
							{
								OFFSET 0.000000 10.009018 0.000000
							}
						}
					}
				}
			}
			JOINT LBackpack_Strap
			{
				OFFSET 15.223200 -7.719803 -6.610900
				CHANNELS 3 Xrotation Yrotation Zrotation
				End Site
				{
					OFFSET 0.000000 16.040596 0.000000
				}
			}
			JOINT RBackpack_Strap
			{
				OFFSET -15.223000 -7.719803 -6.610900
				CHANNELS 3 Xrotation Yrotation Zrotation
				End Site
				{
					OFFSET 0.000000 16.040596 0.000000
				}
			}
		}
	}
	JOINT BoyFacialAnim_Joint
	{
		OFFSET 1.000000 -82.208099 -1.550900
		CHANNELS 3 Xrotation Yrotation Zrotation
		End Site
		{
			OFFSET 0.000000 30.012791 0.000000
		}
	}
}
MOTION
Frames: 4
Frame Time: 0.033333
1.123198 61.411331 3.860605 10.617316 15.037783 -4.212191 0.000001 -0.000001 0.000000 -86.817312 0.302498 4.590713 73.943239 -0.336771 1.355085 16.582945 0.150050 1.804284 0.000000 0.000001 -0.000000 0.000000 0.000001 -0.000000 -0.000000 -0.000001 -0.000000 -85.369851 -6.827799 -34.427292 77.830839 5.841123 -1.180455 11.921922 0.115857 1.343263 0.000001 -0.000001 0.000000 0.000001 -0.000001 0.000000 0.000000 0.000001 -0.000000 12.280666 3.848429 -1.095217 7.440917 4.387409 0.666523 7.336326 5.043644 -0.042008 12.130049 -4.811464 -5.477952 -19.029967 -23.534262 -14.174551 0.000001 -0.000000 0.000000 0.000001 -0.000000 0.000000 0.000001 -0.000000 0.000000 -0.865186 -17.473603 1.181574 -16.824014 -35.565290 -72.115480 0.000039 -65.455738 0.000046 58.290952 14.216343 44.107347 5.250230 -1.002405 18.723721 13.423627 25.808683 -6.803648 0.000001 0.000000 -0.000001 -2.570874 -5.714165 -20.873476 0.205864 1.674343 -14.017432 -0.000001 0.000000 -0.000002 -1.322466 -3.715938 -16.147604 0.131951 1.344260 -11.212169 0.000001 -0.000001 0.000002 -0.582228 -1.659407 -13.493749 0.208500 1.684897 -14.107886 0.000000 0.000000 -0.000004 0.082385 1.188815 -14.185373 0.056322 -3.103095 -8.418333 0.000001 0.000000 -0.000002 0.000003 -0.000000 -0.000001 3.958250 15.452997 -19.394165 -68.737548 -2.745321 40.452086 0.000060 76.752946 -0.000056 -8.520091 -11.541308 -18.686421 -12.685931 13.571058 -26.086863 4.637203 -8.634096 -0.225414 0.000001 -0.000002 0.000001 6.494029 -6.933466 86.242640 7.132189 -6.945820 91.520724 -0.000001 0.000000 0.000002 5.991726 -6.882421 82.068138 7.245595 -6.941882 92.458802 0.000003 0.000003 0.000002 6.087284 -6.894941 82.864852 7.100221 -6.946577 91.256655 0.000004 -0.000001 0.000002 5.810587 -6.857870 78.888371 6.698812 -6.943799 87.937634 -0.000000 0.000000 0.000000 -0.000002 -0.000002 -0.000003 -0.000000 0.000000 0.000001 -0.000000 0.000000 0.000001 -0.000000 0.000000 0.000001 -0.000000 0.000000 0.000001 -0.000000 0.000000 0.000000 -0.000000 0.000001 -0.000001 -0.000000 0.000000 0.000001 -0.000000 0.000000 0.000000 -0.000000 0.000001 -0.000001 -0.000000 0.000000 -0.000000 -0.000000 0.000000 -0.000000 0.000001 -0.000001 0.000000 
1.160562 61.351051 3.840700 10.852500 15.122992 -4.107181 0.000001 -0.000001 -0.000000 -87.100895 0.512747 4.564306 73.953743 -0.417282 1.229256 16.642087 0.161325 1.893407 -0.000000 -0.000000 0.000000 -0.000000 -0.000000 0.000000 -0.000000 -0.000001 0.000000 -85.733784 -6.620802 -34.620904 77.960223 6.000927 -1.195936 11.844589 0.108838 1.291565 0.000001 0.000000 0.000000 0.000001 0.000000 0.000000 -0.000000 -0.000000 -0.000000 12.316294 3.880476 -1.131646 7.480446 4.404464 0.767616 7.362725 5.110671 0.050153 12.384466 -4.932820 -5.536516 -18.594603 -24.058003 -13.801855 0.000000 -0.000001 0.000000 0.000000 -0.000001 0.000000 0.000000 -0.000001 0.000000 -0.943893 -17.546584 0.884635 -16.790085 -35.023588 -72.326847 -0.000050 -66.152984 -0.000036 58.988403 14.012410 43.721496 5.250231 -1.002406 18.723724 13.423628 25.808684 -6.803651 0.000001 0.000001 0.000002 -2.570875 -5.714167 -20.873475 0.205862 1.674344 -14.017431 0.000000 0.000001 -0.000005 -1.322468 -3.715940 -16.147604 0.131950 1.344259 -11.212169 0.000000 -0.000001 -0.000002 -0.582228 -1.659407 -13.493750 0.208502 1.684897 -14.107886 -0.000002 0.000000 -0.000004 0.082385 1.188815 -14.185376 0.056324 -3.103095 -8.418333 0.000001 0.000001 -0.000002 0.000001 0.000004 -0.000002 3.883962 15.366517 -19.064989 -69.224705 -5.365701 40.565911 -0.000588 85.009989 0.000550 -7.600973 -11.445573 -17.852631 -12.623180 13.337382 -26.216190 4.637188 -8.634091 -0.225396 0.000000 -0.000002 -0.000001 6.532494 -6.935857 86.561173 7.146815 -6.945427 91.641543 0.000001 -0.000001 0.000003 6.063862 -6.892004 82.669714 7.234075 -6.942361 92.363521 0.000002 0.000001 -0.000002 6.134452 -6.900639 83.257643 7.106981 -6.946439 91.312307 0.000000 0.000001 0.000004 5.790886 -6.851619 80.277986 6.701225 -6.943864 87.957721 0.000001 0.000001 -0.000001 0.000003 0.000001 -0.000003 -0.000001 0.000001 -0.000000 -0.000001 0.000001 -0.000000 -0.000001 0.000001 -0.000000 -0.000001 0.000001 -0.000000 -0.000001 0.000001 -0.000001 -0.000002 -0.000000 -0.000000 -0.000001 0.000001 -0.000000 -0.000001 0.000001 -0.000001 -0.000002 -0.000000 -0.000000 0.000001 0.000000 -0.000001 0.000001 0.000000 -0.000001 0.000001 -0.000001 -0.000000 
1.170409 61.364449 3.861682 11.116336 15.120649 -4.073718 0.000001 0.000001 -0.000000 -87.313361 0.714929 4.746870 73.882764 -0.600247 1.104454 16.697480 0.166121 1.907856 0.000001 0.000001 -0.000001 0.000001 0.000001 -0.000000 0.000000 0.000000 0.000000 -85.958115 -6.488083 -34.609928 77.955770 6.055455 -1.192891 11.799746 0.105879 1.268827 -0.000000 -0.000000 -0.000000 -0.000000 -0.000000 -0.000000 -0.000000 0.000001 0.000000 12.347690 3.914921 -1.154827 7.489263 4.433470 0.849430 7.361786 5.178205 0.120772 12.488600 -5.017001 -5.662336 -18.223325 -24.487695 -13.500694 0.000001 0.000001 -0.000000 0.000001 0.000001 -0.000000 0.000001 0.000001 -0.000000 -1.099806 -17.689961 0.300984 -16.424745 -34.461853 -72.202674 0.000080 -66.819870 0.000088 59.724397 13.773612 43.350879 5.250229 -1.002406 18.723721 13.423626 25.808689 -6.803642 0.000002 0.000005 -0.000001 -2.570876 -5.714167 -20.873473 0.205862 1.674343 -14.017431 -0.000001 0.000001 -0.000002 -1.322468 -3.715940 -16.147599 0.131950 1.344259 -11.212169 0.000003 0.000000 -0.000001 -0.582229 -1.659407 -13.493750 0.208503 1.684897 -14.107886 -0.000001 -0.000001 0.000003 0.082384 1.188814 -14.185369 0.056323 -3.103096 -8.418335 -0.000000 0.000001 -0.000000 -0.000000 -0.000000 0.000000 3.809876 15.301801 -18.723936 -69.449616 -7.784612 41.361430 0.004905 92.998524 -0.004913 -6.433308 -11.203774 -16.944880 -12.629506 13.148340 -26.103706 4.637196 -8.634104 -0.225412 0.000000 0.000001 -0.000001 6.522660 -6.935275 86.479778 7.161544 -6.944982 91.763448 0.000000 0.000000 0.000005 6.071423 -6.892956 82.732838 7.232903 -6.942419 92.353815 0.000000 -0.000003 -0.000001 6.145740 -6.901943 83.351606 7.098025 -6.946633 91.238384 0.000000 0.000000 0.000000 5.805578 -6.854148 80.221992 6.709574 -6.944171 88.026768 0.000001 0.000001 -0.000003 0.000003 -0.000001 -0.000003 0.000000 0.000001 -0.000000 0.000000 0.000001 -0.000000 0.000000 0.000001 -0.000000 0.000000 0.000001 -0.000000 0.000000 0.000001 -0.000000 -0.000002 -0.000000 0.000000 0.000000 0.000001 -0.000000 0.000000 0.000001 -0.000000 -0.000002 -0.000000 0.000000 -0.000001 0.000001 0.000000 -0.000001 0.000001 0.000000 0.000001 0.000001 -0.000000 
1.162543 61.428780 3.913488 11.373264 15.040445 -4.083883 -0.000000 -0.000000 0.000000 -87.448066 0.879888 5.032435 73.771391 -0.793863 1.009384 16.717503 0.164689 1.867278 0.000000 -0.000002 0.000001 0.000000 -0.000002 0.000001 0.000000 -0.000003 -0.000000 -86.076421 -6.427237 -34.438104 77.868507 5.968668 -1.196081 11.771463 0.105003 1.236167 0.000002 0.000000 0.000000 0.000002 0.000000 0.000000 0.000000 0.000000 0.000000 12.365952 3.953798 -1.176113 7.488308 4.476858 0.916879 7.352498 5.253191 0.176454 12.402460 -5.021168 -5.890426 -17.990206 -24.643696 -13.326914 -0.000000 -0.000001 0.000001 -0.000000 -0.000001 0.000001 -0.000000 -0.000001 0.000001 -1.297089 -17.841298 -0.441683 -15.848931 -33.967268 -71.815676 0.000080 -67.433426 0.000078 60.405326 13.542285 43.034546 5.250229 -1.002406 18.723721 13.423628 25.808689 -6.803649 0.000001 -0.000002 -0.000000 -2.570877 -5.714167 -20.873473 0.205862 1.674345 -14.017431 0.000000 0.000001 -0.000003 -1.322466 -3.715940 -16.147607 0.131952 1.344259 -11.212170 0.000001 -0.000000 0.000000 -0.582228 -1.659408 -13.493752 0.208502 1.684897 -14.107887 0.000000 -0.000001 -0.000001 0.082384 1.188816 -14.185376 0.056324 -3.103095 -8.418335 -0.000001 0.000001 -0.000000 -0.000001 -0.000000 0.000001 3.752548 15.308670 -18.433265 -68.950855 -9.734844 42.243743 -0.000094 100.392634 0.000062 -5.163591 -10.876236 -16.315495 -12.610892 13.127784 -26.149294 4.637201 -8.634093 -0.225411 -0.000001 0.000001 0.000001 6.563209 -6.937610 86.815584 7.184051 -6.944260 91.949646 -0.000001 -0.000000 0.000002 6.116071 -6.898462 83.104653 7.235917 -6.942296 92.378903 0.000001 0.000001 0.000002 6.164609 -6.904089 83.508591 7.109600 -6.946362 91.334055 -0.000001 -0.000001 0.000000 5.685008 -6.834849 80.832236 6.712490 -6.944267 88.050803 0.000001 -0.000001 -0.000002 -0.000001 -0.000002 -0.000001 0.000004 0.000001 -0.000000 0.000004 0.000001 -0.000000 0.000004 0.000001 -0.000000 0.000004 0.000001 -0.000000 0.000004 0.000001 -0.000001 0.000001 0.000000 0.000000 0.000004 0.000001 -0.000000 0.000004 0.000001 -0.000001 0.000001 0.000000 0.000000 -0.000001 -0.000001 0.000000 -0.000001 -0.000001 0.000000 -0.000000 -0.000000 0.000000 
